inDegrees=no
num_controls=7
num_derivatives=13
num_iterations=91
num_multipliers=7
num_parameters=0
num_slacks=7
num_states=26
objective=5.588515
objective_accelerations=0.735281
objective_balance=0.047387
objective_effort=0.689503
objective_height=4.062166
objective_ligament=0.054177
solver_duration=935.011712
status=Solve_Succeeded
success=true
DataType=double
version=3
OpenSimVersion=4.4-2022-07-23-0e9fedc
endheader
time	/jointset/ground_pelvis/pelvis_tilt/value	/jointset/ground_pelvis/pelvis_tx/value	/jointset/ground_pelvis/pelvis_ty/value	/jointset/hip_l/hip_flexion_l/value	/jointset/hip_l/hip_adduction_l/value	/jointset/hip_l/hip_rotation_l/value	/jointset/back/lumbar_extension/value	/jointset/patellofemoral_l/patellar_flexion_l/value	/jointset/knee_l/knee_flexion_l/value	/jointset/knee_l/knee_adduction_l/value	/jointset/knee_l/knee_rotation_l/value	/jointset/ankle_l/ankle_angle_l/value	/jointset/subtalar_l/subtalar_angle_l/value	/jointset/ground_pelvis/pelvis_tilt/speed	/jointset/ground_pelvis/pelvis_tx/speed	/jointset/ground_pelvis/pelvis_ty/speed	/jointset/hip_l/hip_flexion_l/speed	/jointset/hip_l/hip_adduction_l/speed	/jointset/hip_l/hip_rotation_l/speed	/jointset/back/lumbar_extension/speed	/jointset/patellofemoral_l/patellar_flexion_l/speed	/jointset/knee_l/knee_flexion_l/speed	/jointset/knee_l/knee_adduction_l/speed	/jointset/knee_l/knee_rotation_l/speed	/jointset/ankle_l/ankle_angle_l/speed	/jointset/subtalar_l/subtalar_angle_l/speed	/forceset/tau_hip_flexion_l	/forceset/tau_hip_adduction_l	/forceset/tau_hip_rotation_l	/forceset/tau_knee_flexion_l	/forceset/tau_ankle_angle_l	/forceset/tau_subtalar_angle_l	/forceset/tau_lumbar_extension	lambda_cid13_p0	lambda_cid13_p1	lambda_cid13_p2	lambda_cid13_p3	lambda_cid13_p4	lambda_cid13_p5	lambda_cid14_p0	/jointset/ground_pelvis/pelvis_tilt/accel	/jointset/ground_pelvis/pelvis_tx/accel	/jointset/ground_pelvis/pelvis_ty/accel	/jointset/hip_l/hip_flexion_l/accel	/jointset/hip_l/hip_adduction_l/accel	/jointset/hip_l/hip_rotation_l/accel	/jointset/back/lumbar_extension/accel	/jointset/patellofemoral_l/patellar_flexion_l/accel	/jointset/knee_l/knee_flexion_l/accel	/jointset/knee_l/knee_adduction_l/accel	/jointset/knee_l/knee_rotation_l/accel	/jointset/ankle_l/ankle_angle_l/accel	/jointset/subtalar_l/subtalar_angle_l/accel	gamma_cid13_p0	gamma_cid13_p1	gamma_cid13_p2	gamma_cid13_p3	gamma_cid13_p4	gamma_cid13_p5	gamma_cid14_p0
1.5	-0.06165288036382885	-0.06973510198592618	0.7274600556683942	1.16988784157024	-0.3074620789802115	-0.06504853855581648	-0.879419009886277	1.24041041154863	1.240410411548661	0.03719556255462531	-0.1745239060420638	0.2288635879803647	0.07197519405278914	0.3736011691787873	0.2065306049309104	0.9341099088947529	-3.111832448496979	0.03288347813530301	-0.6276079388290123	0.6967578405088313	-3.036884640556037	-3.036884640555953	-0.4927613412102675	-0.0006148872972203265	-0.4869986583012141	-0.1613061624017316	-0.2978938114446809	0.01066895298809494	-0.01943710029091999	-0.3212771718863067	0.1215442298608927	0.04688014106222651	0.3698981140762319	-3.296214118118995	-17.07856176961954	-0.8205245452001028	-25.52477047543302	-693.3759871030126	-68.71400490586031	-0.4158516209252789	1.381194336263694	1.51466899661639	-0.6521214719447684	-2.41741996300037	0.3434547724523148	-0.8157553091267336	3.542911935373069	-2.840133323432025	-2.840133323431544	-0.4549959791121863	0.1175384864281183	-2.004674494608179	-0.3177390325586837	4.402413201640748e-07	3.292899738971534e-06	-7.513592375464044e-07	5.407922237781623e-07	5.746669959448597e-07	-1.019510466153664e-07	6.188899994132261e-07
1.51	-0.05784857806841922	-0.06759390206361938	0.7367661199539103	1.138651621266893	-0.3071180092545723	-0.07136677564317354	-0.8722746218570921	1.209903066110861	1.209903066110873	0.03224376728540074	-0.174527926448286	0.2238943461378738	0.07034438017344918	0.3871422720196449	0.2217210851000539	0.9268567593262099	-3.135046678972736	0.0359461635700504	-0.6360302025398699	0.7321291103513783	-3.064190388383594	-3.064190388383539	-0.4975565944518482	-0.0001503143532968781	-0.5066828340260694	-0.1647501943604798	-0.28820875789733	0.01124082555759492	-0.01867048072571594	-0.3121333179323023	0.1204892311744842	0.04715252157353239	0.359964607594272	-2.954100304429556	-17.46754951096213	-0.5177348492929419	-25.69940652392892	-682.7273658854955	-68.68443610462914	-0.8030032198517899	1.323078041722043	1.523096642351301	-0.798706304351598	-2.218620860864843	0.289866119111887	-0.8533510028009349	3.535636261918974	-2.616826125180645	-2.616826125185009	-0.4849271298040439	0.01655875173194963	-1.925073006096009	-0.3422422728935958	5.049704097731553e-07	3.565226515669244e-06	-9.459823638480137e-07	5.246892403339911e-07	6.366865195539753e-07	-2.745266953371601e-08	6.704592964605801e-07
1.52	-0.05391236278786892	-0.06530042551656383	0.745992293822735	1.107194219404577	-0.3067428745365484	-0.07776881318777436	-0.8647762407788434	1.179134457072261	1.179134457072277	0.02724539205706834	-0.1745261727154388	0.218733305759203	0.06868222457544952	0.3999837662095342	0.2369859298806654	0.9181318255560574	-3.156068760288545	0.03909647660974711	-0.6443680302801973	0.7675564503229099	-3.089137360721672	-3.089137360721647	-0.5020773330183361	0.0005399407248317087	-0.5253583655377959	-0.1675745061336983	-0.2785237043500092	0.01181269812721645	-0.01790386116063204	-0.3029894639783057	0.1194342324881115	0.04742490208501022	0.3500311011122701	-2.61266393757968	-17.87092870994228	-0.1960770091289727	-25.95508500366416	-672.1071612046646	-68.75195336199597	-1.317628703428586	1.241272606069651	1.529541918910346	-0.9464783122666205	-1.978990131010748	0.3609802934420889	-0.7988681150212293	3.554125961169937	-2.368378225536129	-2.368378225536074	-0.4000930440935375	0.1626749132684714	-1.802945651981879	-0.1937949954528963	5.672829166783005e-07	3.863775092511402e-06	-1.106631828599078e-06	5.114289930549199e-07	7.042736322787307e-07	8.030950050683243e-08	7.196465306160565e-07
1.53	-0.0498512523407361	-0.0628540555900042	0.7551239546624213	1.075537441341752	-0.3063358704827593	-0.08425372230809336	-0.8569238022741412	1.148128294868328	1.148128294868376	0.02220278728118029	-0.1745164729976903	0.2133907354366848	0.06699489280546547	0.4121056515616818	0.2522858197386344	0.907959516921009	-3.174896707118906	0.04232975398236153	-0.6525656531900872	0.8029062042033501	-3.111670621703322	-3.11167062170331	-0.5064167112151142	0.001470299721071104	-0.542964911752296	-0.1697691779491068	-0.2683957871402656	0.01210670133834455	-0.01717342600001876	-0.2940167205395984	0.1183024088218421	0.04743529363918358	0.3395578411119729	-2.311156434832976	-18.14636677116529	0.09699593789221719	-25.9826384554299	-661.3439038267494	-68.61967871475765	-1.954192622317647	1.177809093406414	1.529976308523963	-1.088567532896421	-1.77610778646343	0.3081067363613567	-0.8221696237411198	3.521643139063705	-2.132289535225163	-2.13228953522713	-0.446029723759257	0.06852280545536191	-1.710674201953595	-0.2144489538352083	6.270278044605143e-07	4.190184332007038e-06	-1.23118427795269e-06	5.011891529512674e-07	7.777763084388534e-07	2.234144505662096e-07	7.663028229489128e-07
